<svg xmlns="http://www.w3.org/2000/svg" fill="none" viewBox="-0.5 -0.5 16 16" stroke-linecap="round" stroke-linejoin="round" stroke="#000000" id="Edit-One--Streamline-Mynaui" height="16" width="16">
  <desc>
    Edit One Streamline Icon: https://streamlinehq.com
  </desc>
  <path d="M5.958125 6.96875A1.139375 1.139375 0 0 0 5.625 7.773750000000001V9.375h1.6112499999999998c0.301875 0 0.5918749999999999 -0.12 0.8056249999999999 -0.33375l4.75 -4.7525a1.13875 1.13875 0 0 0 0 -1.610625l-0.469375 -0.469375a1.13875 1.13875 0 0 0 -1.6112499999999998 0z" stroke-width="1"></path>
  <path d="M13.125 7.5c0 2.6518750000000004 0 3.9775 -0.82375 4.8012500000000005C11.477500000000001 13.125 10.151250000000001 13.125 7.5 13.125c-2.6518750000000004 0 -3.9775 0 -4.8012500000000005 -0.82375C1.875 11.477500000000001 1.875 10.151250000000001 1.875 7.5c0 -2.6518750000000004 0 -3.9775 0.82375 -4.8012500000000005C3.5225 1.875 4.84875 1.875 7.5 1.875" stroke-width="1"></path>
</svg>