<svg xmlns="http://www.w3.org/2000/svg" fill="none" viewBox="-0.5 -0.5 16 16" stroke-linecap="round" stroke-linejoin="round" stroke="#000000" id="Play-Hexagon--Streamline-Mynaui" height="16" width="16">
  <desc>
    Play Hexagon Streamline Icon: https://streamlinehq.com
  </desc>
  <path d="M8.276250000000001 6.6937500000000005c0.42000000000000004 0.34187500000000004 0.63 0.5131249999999999 0.63 0.80625 0 0.29312499999999997 -0.21000000000000002 0.464375 -0.63 0.80625 -0.115625 0.095 -0.23125 0.18437499999999998 -0.33625000000000005 0.258125a5.683125 5.683125 0 0 1 -0.30625 0.19875c-0.41875 0.25437499999999996 -0.62875 0.38187499999999996 -0.81625 0.240625 -0.1875 -0.140625 -0.20500000000000002 -0.435625 -0.239375 -1.0262499999999999A8.485625 8.485625 0 0 1 6.5625 7.5c0 -0.14687499999999998 0.00625 -0.310625 0.015625 -0.47750000000000004 0.034375 -0.590625 0.051250000000000004 -0.885625 0.239375 -1.0262499999999999 0.1875 -0.14125000000000001 0.3975 -0.013749999999999998 0.81625 0.240625 0.10874999999999999 0.06625 0.213125 0.13375 0.30625 0.19875 0.10562500000000001 0.07375 0.220625 0.16312500000000002 0.33625000000000005 0.2575" stroke-width="1"></path>
  <path d="M12.8125 9.875V5.125a1.1937499999999999 1.1937499999999999 0 0 0 -0.59 -1.028125l-4.1325 -2.375a1.1749999999999998 1.1749999999999998 0 0 0 -1.18 0l-4.1325 2.375A1.184375 1.184375 0 0 0 2.1875 5.125v4.751250000000001a1.1937499999999999 1.1937499999999999 0 0 0 0.59 1.0274999999999999l4.1325 2.375a1.1749999999999998 1.1749999999999998 0 0 0 1.18 0l4.1325 -2.375A1.184375 1.184375 0 0 0 12.8125 9.875" stroke-width="1"></path>
</svg>