<svg xmlns="http://www.w3.org/2000/svg" fill="none" viewBox="-0.5 -0.5 16 16" stroke-linecap="round" stroke-linejoin="round" stroke="currentColor" aria-hidden="true">
  <path d="m5.436875 6.6537500000000005 -0.065 -0.30625m3.121875 -0.34375 -0.065 -0.30625M5.3125 9.73125c0.78625 0.1975 1.67875 0.1975 2.5768750000000002 -0.043125000000000004 0.8975 -0.240625 1.6700000000000002 -0.686875 2.2525 -1.2506249999999999" stroke-width="1" />
  <path d="m7.866875 9.773125 0.29874999999999996 0.60875a0.9375 0.9375 0 1 0 1.683125 -0.82625l-0.28750000000000003 -0.5843750000000001" stroke-width="1" />
  <path d="M1.875 11.60125v-4.0737499999999995C1.875 4.40625 4.39375 1.875 7.5 1.875s5.625 2.53125 5.625 5.6525v4.073125c0 0.72625 -0.604375 1.574375 -1.25 1.25 -0.521875 -0.2625 -1.3893749999999998 -0.325 -1.875 0 -0.54625 0.365625 -1.3287499999999999 0.365625 -1.875 0 -0.553125 -0.370625 -1.0306250000000001 -0.35624999999999996 -1.5625 0 -0.54625 0.365625 -1.3287499999999999 0.365625 -1.875 0 -0.48562500000000003 -0.325 -1.040625 -0.2625 -1.5625 0 -0.6456249999999999 0.324375 -1.25 -0.5237499999999999 -1.25 -1.25" stroke-width="1" />
</svg>
