<svg xmlns="http://www.w3.org/2000/svg" fill="none" viewBox="-0.5 -0.5 16 16" stroke-linecap="round" stroke-linejoin="round" stroke="currentColor" aria-hidden="true">
  <path d="M4.82625 11.110625a4.564375 4.564375 0 0 0 2.9475000000000002 1.076875c2.553125 0 4.6225 -2.09875 4.6225 -4.6875a4.74375 4.74375 0 0 0 -0.1 -0.9725M4.82625 11.110625A4.704375 4.704375 0 0 1 3.15125 7.5c0 -2.58875 2.069375 -4.6875 4.621874999999999 -4.6875 2.224375 0 4.08125 1.593125 4.5225 3.715M4.82625 11.110625c1.129375 -0.2625 2.47375 -0.808125 3.8293749999999998 -1.6018750000000002 1.5775000000000001 -0.92375 2.8606249999999998 -2.0012499999999998 3.640625 -2.9812499999999997M4.82625 11.110625c-1.40375 0.325 -2.476875 0.21250000000000002 -2.8299999999999996 -0.40875 -0.364375 -0.64 0.11374999999999999 -1.6800000000000002 1.155625 -2.78625m9.144375 -1.3875000000000002c0.723125 -0.90875 1.014375 -1.7325 0.7074999999999999 -2.2718749999999996 -0.31125 -0.546875 -1.18 -0.7000000000000001 -2.34125 -0.5062500000000001" stroke-width="1" />
</svg>
